<?xml version="1.0" encoding="UTF-8" standalone="no"?>
<svg width="24px" height="48px" viewBox="0 0 512 1024" style="enable-background:new 0 0 512 1024;" version="1.1" xmlns="http://www.w3.org/2000/svg" xmlns:xlink="http://www.w3.org/1999/xlink" xmlns:sketch="http://www.bohemiancoding.com/sketch/ns">
    <title>Extension Icon</title>
    <description>Created with Sketch (http://www.bohemiancoding.com/sketch)</description>
    <style type="text/css">
		.state0{fill:#BBBBBB;}
	</style>
    <defs></defs>
    <g>
		<path class="state0" d="M179,303l-51.332-42l-51.335,42V50H179V303z M353.012,272.715H209v30h144.012V272.715z M352.979,207.298H209v30h143.979V207.298z M209,50v40h186.667c0,0,0,186.325,0,218.075c0,63.121-77.928,37.833-77.928,37.833 s23.859,76.092-35,76.092c-32.062,0-48.064,0-166.406,0V309.034l-40,32.728V462h207.016c68.165,0,152.318-89.069,152.318-150.472V50 H209z M209,171.965h143.979v-30H209V171.965z"/>
	</g>
</svg>